<svg xmlns="http://www.w3.org/2000/svg" xmlns:xlink="http://www.w3.org/1999/xlink" width="122" height="122" viewBox="0 0 122 122"><defs><clipPath id="a"><rect width="122" height="122" fill="rgba(38,153,251,0.05)"/></clipPath></defs><g clip-path="url(#a)"><g fill="rgba(255,255,254,0.05)" stroke="#121629" stroke-width="4"><rect width="122" height="122" rx="61" stroke="none"/><rect x="2" y="2" width="118" height="118" rx="59" fill="none"/></g><path d="M10.5-9a6,6,0,0,0,6-6,6,6,0,0,0-6-6,6,6,0,0,0-6,6A6,6,0,0,0,10.5-9Zm4.2,1.5h-.783a8.169,8.169,0,0,1-3.417.75A8.185,8.185,0,0,1,7.083-7.5H6.3A6.3,6.3,0,0,0,0-1.2V.75A2.251,2.251,0,0,0,2.25,3h16.5A2.251,2.251,0,0,0,21,.75V-1.2A6.3,6.3,0,0,0,14.7-7.5Z" transform="translate(51 70)" fill="#fffffe" opacity="0.5"/></g></svg>