<svg xmlns="http://www.w3.org/2000/svg" xmlns:xlink="http://www.w3.org/1999/xlink" width="24" height="24" viewBox="0 0 24 24"><defs><clipPath id="a"><rect width="24" height="24" transform="translate(0 43)" fill="none"/></clipPath></defs><g transform="translate(0 -43)" clip-path="url(#a)"><path d="M10.958,3.223a1.061,1.061,0,0,1,2.051,0L14.86,9.194h5.972a1.089,1.089,0,0,1,1.074.79,1.166,1.166,0,0,1-.437,1.3l-4.848,3.685,1.851,5.981a1.159,1.159,0,0,1-.388,1.273,1.035,1.035,0,0,1-1.274-.01l-4.858-3.726-4.848,3.7a1.035,1.035,0,0,1-1.274.01,1.159,1.159,0,0,1-.388-1.273L7.3,14.935,2.448,11.25a1.166,1.166,0,0,1-.437-1.3,1.089,1.089,0,0,1,1.074-.79H9.057Z" transform="translate(0.042 42.565)" fill="rgba(40,41,44,0.25)" fill-rule="evenodd"/></g></svg>