<svg xmlns="http://www.w3.org/2000/svg" xmlns:xlink="http://www.w3.org/1999/xlink" width="24" height="24" viewBox="0 0 24 24"><defs><clipPath id="a"><rect width="24" height="24" transform="translate(7878 3374)" fill="none"/></clipPath></defs><g transform="translate(-7878 -3374)" clip-path="url(#a)"><path d="M0,8A8,8,0,1,0,8,0,8.009,8.009,0,0,0,0,8ZM5.6,5.6a.8.8,0,0,1,1.6,0v4.8a.8.8,0,0,1-1.6,0Zm4-.8a.8.8,0,0,0-.8.8v4.8a.8.8,0,0,0,1.6,0V5.6A.8.8,0,0,0,9.6,4.8Z" transform="translate(7882 3378)" fill="rgba(40,41,44,0.25)" fill-rule="evenodd"/></g></svg>